<?xml version="1.0" encoding="utf-8"?>
<!-- Generator: Adobe Illustrator 27.8.1, SVG Export Plug-In . SVG Version: 6.00 Build 0)  -->
<svg version="1.1" id="Livello_1" xmlns="http://www.w3.org/2000/svg" xmlns:xlink="http://www.w3.org/1999/xlink" x="0px" y="0px"
	 viewBox="0 0 1440 674" style="enable-background:new 0 0 1440 674;" xml:space="preserve">
<style type="text/css">
	.st0{fill:#FFFFFF;}
	.st1{fill:#009DFF;}
	.st2{fill:#FFB531;}
	.st3{fill:#242431;}
	.st4{fill:#01223F;}
	.st5{fill:#332352;}
	.st6{fill:#FFE1D7;}
	.st7{fill:#8EC6EF;}
</style>
<path class="st0" d="M494.8,120.9H690c2.5-4.9,3.8-10,0.9-14.3c-2.6-3.7-7.1-5.8-11.5-5.5c-2.9,0.3-5.7,1.5-8.6,2
	c-9.9,1.6-17.1-5.4-18.4-14.5c-1.3-9.2-10.7-16-19.9-13.1c-4.5,1.4-8.4,4.5-12.9,6.1c-13,4.8-13.1-7.5-17.6-15.8
	c-6.7-12.5-22.1-19.6-36-16.7c-13.9,2.9-25.1,15.6-26.3,29.7c-0.6,7.4,1.2,14.9,0,22.2c-1.3,7.3-7.6,14.7-14.9,13.2
	c-7.3-1.6-10.2-10.7-16.8-14.2c-5.5-3-13.2-0.9-16.4,4.5C488.5,109.8,490,117.2,494.8,120.9L494.8,120.9z"/>
<path class="st0" d="M-80.2,193.3H115c2.5-4.9,3.8-10,0.9-14.3c-2.6-3.7-7.1-5.8-11.5-5.5c-2.9,0.3-5.7,1.5-8.6,2
	c-9.9,1.6-17.1-5.4-18.4-14.5c-1.3-9.2-10.7-16-19.9-13.1c-4.5,1.4-8.4,4.5-12.9,6.1c-13,4.8-13.1-7.5-17.6-15.8
	c-6.7-12.5-22.1-19.6-36-16.7c-13.9,2.9-25.1,15.6-26.3,29.7c-0.6,7.4,1.2,14.9,0,22.2c-1.3,7.3-7.6,14.7-14.9,13.2
	c-7.3-1.6-10.2-10.7-16.8-14.2c-5.5-3-13.2-0.9-16.4,4.5C-86.5,182.2-84.9,189.6-80.2,193.3L-80.2,193.3z"/>
<path class="st0" d="M1490.1,121.1c0.5-7.8-6.9-15.4-14.8-14.6c-3.4,0.3-6.6,1.9-10,1.8c-3.4-0.1-7-2.7-6.2-6
	c1.1-4.5-0.8-9.6-4.6-12.3c-3.8-2.6-9.3-2.6-13.1,0.1c-2.4,1.7-4.1,4.3-6.3,6.5c-2.1,2.2-5.1,3.9-8,3.2s-5.4-5.3-3-7.1
	c3.2-9.4-2.6-20.9-12.1-23.9s-20.8,3-23.6,12.6c-1.2,4.2-1,8.6-2.1,12.8c-1.2,4.2-4.5,8.3-8.8,8.1c-3.6-0.2-6.3-3.3-8.1-6.5
	c-1.7-3.2-3-6.7-5.8-9.1c-3.4-2.9-8.7-3.4-12.5-1.1c-3.8,2.3-5.8,7.3-4.7,11.6c1.2,4.6-2.4,9.7-7,10.8c-4.6,1-9.6,0.1-14,1.9
	c-4.4,1.8-7.2,6.5-7.3,11.2H1490.1z"/>
<path class="st1" d="M498.8,386.1c-28.6,46.3-7,67.5-1.3,71.9l-0.5,30.1h3.6l-0.5-30.1C505.8,453.6,527.5,432.4,498.8,386.1
	L498.8,386.1z"/>
<path class="st1" d="M783.3,613.5H94.1c61.4-69.1,113.5-147,154.5-230.9c22-44.9,41-92,70.3-132.1c1.1-1.6,2.3-3.1,3.5-4.7
	c31.3-41,77.2-74,127.5-73.7c45.2,0.3,86.4,26.9,120.5,57.8c4.3,3.9,8.5,7.9,12.7,12C683.3,339.6,738.8,477,783.3,613.5L783.3,613.5
	z"/>
<path class="st0" d="M583.1,242c-7.2,10.6-21.4,16.3-32.5,10.5c-6.8-3.6-11.4-10.5-17.4-15.6c-6-5-15.3-7.8-20.9-2.4
	c-7.4,7.1-1.8,21.2-7.8,29.6c-7.2,10-22.7,3.3-30.8-6c-8-9.3-16-21.5-28-21.4c-20.9,0.3-27.9,37.8-48.8,36.6
	c-15.5-0.9-19.8-19.4-30.5-27.6c-17.2-13-26.9,1.8-44.8,4.5c-0.9,0.1-1.8,0.3-2.6,0.3c1.1-1.6,2.3-3.1,3.5-4.7
	c31.3-41,77.2-74,127.5-73.7c45.2,0.3,86.4,26.9,120.5,57.8C574.8,233.9,579,237.9,583.1,242L583.1,242z"/>
<path class="st1" d="M1345.9,614.4H317.7c126.3-54.1,238-145.1,317.7-260.6c35.8-51.9,65.4-108.6,100.2-161
	c12.6-19,26-37.6,40.5-55.1C830.8,71.8,909.9,19.1,993.2,27.6c67.3,6.9,126.3,53.2,166.1,110.2c5.8,8.3,11.2,16.8,16.4,25.4
	c30.3,51,50.5,108.3,70.2,164.9C1279.2,423.5,1312.5,518.9,1345.9,614.4L1345.9,614.4z"/>
<path class="st0" d="M1175.7,163.2c-21-3-40.3-21.4-61.1-3.9c-17.4,14.6-11.9,61.6-49.6,42.7c-15.2-7.7-24.3-34.9-41.8-37
	c-26.6-3.2-22.2,30.9-37.2,43c-37.6,30.4-44.5-47.5-71.9-51.5c-16.1-2.3-28,14.5-36.8,28.7c-35.4,57.3-47.2-19.5-77.2-29.8
	c-24.3-8.3-41.6,35.4-64.5,37.3c12.6-19,26-37.6,40.5-55.1C830.8,71.7,909.9,19,993.2,27.5c67.3,6.9,126.3,53.2,166.1,110.2
	C1165.1,146,1170.5,154.5,1175.7,163.2L1175.7,163.2z"/>
<path class="st1" d="M498.8,385.5c-35.9,58-8.7,84.5-1.6,90.1l-0.6,37.7h4.4l-0.6-37.7C507.5,470,534.7,443.5,498.8,385.5z"/>
<path class="st2" d="M1309.6,613.1c-41-47.2-84.8-93.5-139.1-124.4c-54.3-31-121.1-45.2-180.2-24.9C949,478,915.1,507.1,880,533
	s-74.7,49.7-118.2,50.3c-57.8-8.3-124.2,21-157.1,69.3l793.8-1.4C1377.1,628.7,1340.6,613.7,1309.6,613.1z"/>
<path class="st3" d="M129.1,490c-28.6,46.3-7,67.5-1.3,71.9l-0.5,30h3.6l-0.5-30C136.1,557.5,157.8,536.3,129.1,490L129.1,490z"/>
<path class="st2" d="M1044.4,365.4c-28.6,46.3-7,67.5-1.3,71.9l-0.5,30.1h3.6l-0.5-30.1C1051.4,432.8,1073.1,411.7,1044.4,365.4
	L1044.4,365.4z"/>
<path class="st4" d="M264,342l-55.5,74.4v41v33.4l55.5-74.3l55.5,74.3v-33.4v-41L264,342z"/>
<path class="st1" d="M264,356.5l-55.5,74.3v41v33.4l55.5-74.4l55.5,74.4v-33.4v-41L264,356.5z"/>
<path class="st4" d="M264,371l-55.5,74.3v41v33.4l55.5-74.4l55.5,74.4v-33.4v-41L264,371z"/>
<path class="st1" d="M264,385.5l-55.5,74.3v41v33.4l55.5-74.4l55.5,74.4v-33.4v-41L264,385.5z"/>
<path class="st0" d="M319.5,624.7V476.2L264,401.9l-55.5,74.3v148.5H319.5z"/>
<path class="st1" d="M270.7,474.3h-13.6v18.2h13.6V474.3z"/>
<path class="st1" d="M233.1,474.3h-13.6v18.2h13.6V474.3z"/>
<path class="st1" d="M308.4,474.3h-13.6v18.2h13.6V474.3z"/>
<path class="st1" d="M270.8,498.3h-13.6v18.2h13.6V498.3z"/>
<path class="st1" d="M233.1,498.3h-13.6v18.2h13.6V498.3z"/>
<path class="st1" d="M308.4,498.3h-13.6v18.2h13.6V498.3z"/>
<path class="st1" d="M270.6,522.3H257v18.2h13.6V522.3z"/>
<path class="st1" d="M233.1,522.3h-13.6v18.2h13.6V522.3z"/>
<path class="st1" d="M308.4,522.3h-13.6v18.2h13.6V522.3z"/>
<path class="st1" d="M270.8,546.3h-13.6v18.2h13.6V546.3z"/>
<path class="st1" d="M233.1,546.3h-13.6v18.2h13.6V546.3z"/>
<path class="st1" d="M308.4,546.3h-13.6v18.2h13.6V546.3z"/>
<path class="st3" d="M195.4,626.7c7.8-5.4,18.6-5.9,26.8-1.3c-0.7-7.2,3.8-14.6,10.5-17.4c6.7-2.8,15.1-0.7,19.7,5
	c2.7-25.8,18.1-49.1,45.5-46.2c18.5,2,37.9,21.6,39.6,35.5c10.1-5.3,22.7-5.6,33.1-0.7c10.3,4.9,18.1,14.9,20.3,26.1
	c17-6.2,38.1,5.9,41.3,23.7l-247.3,0.1C183.4,642.1,187.7,632.1,195.4,626.7L195.4,626.7z"/>
<path class="st1" d="M253.1,626.7c-7.7-5.4-18.6-5.9-26.8-1.3c0.7-7.2-3.8-14.6-10.5-17.4c-6.7-2.7-15.1-0.7-19.7,5
	c-2.7-25.8-18.1-49.1-45.5-46.2c-18.5,2-37.9,21.6-39.6,35.5c-10.1-5.3-22.7-5.6-33.1-0.7c-10.3,4.9-18.1,14.9-20.3,26.1
	c-17-6.2-38.1,5.9-41.3,23.7l247.3,0.1C265.1,642.1,260.8,632.1,253.1,626.7L253.1,626.7z"/>
<path class="st0" d="M995.6,320.8h-132v288.8h132V320.8z"/>
<path class="st2" d="M929.6,373.4c9.5,0,17.2-7.7,17.2-17.2s-7.7-17.2-17.2-17.2s-17.2,7.7-17.2,17.2
	C912.4,365.7,920.1,373.4,929.6,373.4z"/>
<path class="st2" d="M904.3,388.7H888V405h16.3V388.7z"/>
<path class="st2" d="M937.7,388.7h-16.3V405h16.3V388.7z"/>
<path class="st2" d="M971.1,388.7h-16.4V405h16.4V388.7z"/>
<path class="st2" d="M904.3,424.6H888v16.3h16.3V424.6z"/>
<path class="st2" d="M937.7,424.6h-16.3v16.3h16.3V424.6z"/>
<path class="st2" d="M971.1,424.6h-16.4v16.3h16.4V424.6z"/>
<path class="st2" d="M904.3,460.4H888v16.3h16.3V460.4z"/>
<path class="st2" d="M937.7,460.4h-16.3v16.3h16.3V460.4z"/>
<path class="st2" d="M971.1,460.4h-16.4v16.3h16.4V460.4z"/>
<path class="st2" d="M863.5,353.6l66.1-32.8v-33.2l-66.1,33.2V353.6z"/>
<path class="st3" d="M995.6,353.6l-66-32.8v-33.2l66,33.2V353.6z"/>
<path class="st3" d="M803.7,267.5l-40.3,40.3H683l40.3-40.3H803.7z"/>
<path class="st2" d="M803.7,267.5l40.3,40.3V469h-80.6V307.8L803.7,267.5z"/>
<path class="st0" d="M763.4,307.8H683v161.3h80.4V307.8z"/>
<path class="st3" d="M1186.6,296.5h-112.1v354.3h112.1V296.5z"/>
<path class="st3" d="M1252.6,296.5h-66v354.3h66V296.5z"/>
<path class="st1" d="M1111.7,312.8H1099v12.7h12.7V312.8z"/>
<path class="st1" d="M1137.6,312.8h-12.7v12.7h12.7V312.8z"/>
<path class="st1" d="M1163.4,312.8h-12.7v12.7h12.7V312.8z"/>
<path class="st1" d="M1111.7,340.7H1099v12.7h12.7V340.7z"/>
<path class="st1" d="M1137.6,340.7h-12.7v12.7h12.7V340.7z"/>
<path class="st1" d="M1163.4,340.7h-12.7v12.7h12.7V340.7z"/>
<path class="st1" d="M1111.7,368.5H1099v12.7h12.7V368.5z"/>
<path class="st1" d="M1137.6,368.5h-12.7v12.7h12.7V368.5z"/>
<path class="st1" d="M1163.4,368.5h-12.7v12.7h12.7V368.5z"/>
<path class="st1" d="M1111.7,397.3H1099V410h12.7V397.3z"/>
<path class="st1" d="M1137.6,397.3h-12.7V410h12.7V397.3z"/>
<path class="st1" d="M1163.4,397.3h-12.7V410h12.7V397.3z"/>
<path class="st1" d="M1111.7,425.2H1099v12.7h12.7V425.2z"/>
<path class="st1" d="M1137.6,425.2h-12.7v12.7h12.7V425.2z"/>
<path class="st1" d="M1163.4,425.2h-12.7v12.7h12.7V425.2z"/>
<path class="st1" d="M1111.7,453H1099v12.7h12.7V453z"/>
<path class="st1" d="M1137.6,453h-12.7v12.7h12.7V453z"/>
<path class="st1" d="M1163.4,453h-12.7v12.7h12.7V453z"/>
<path class="st1" d="M1111.7,481.8H1099v12.7h12.7V481.8z"/>
<path class="st1" d="M1137.6,481.8h-12.7v12.7h12.7V481.8z"/>
<path class="st1" d="M1163.4,481.8h-12.7v12.7h12.7V481.8z"/>
<path class="st1" d="M1111.7,509.7H1099v12.7h12.7V509.7z"/>
<path class="st1" d="M1137.6,509.7h-12.7v12.7h12.7V509.7z"/>
<path class="st1" d="M1163.4,509.7h-12.7v12.7h12.7V509.7z"/>
<path class="st1" d="M1111.7,537.4H1099v12.7h12.7V537.4z"/>
<path class="st1" d="M1137.6,537.4h-12.7v12.7h12.7V537.4z"/>
<path class="st1" d="M1163.4,537.4h-12.7v12.7h12.7V537.4z"/>
<path class="st1" d="M1111.7,566.3H1099V579h12.7V566.3z"/>
<path class="st1" d="M1137.6,566.3h-12.7V579h12.7V566.3z"/>
<path class="st1" d="M1163.4,566.3h-12.7V579h12.7V566.3z"/>
<path class="st1" d="M1111.7,594.1H1099v12.7h12.7V594.1z"/>
<path class="st1" d="M1137.6,594.1h-12.7v12.7h12.7V594.1z"/>
<path class="st1" d="M1163.4,594.1h-12.7v12.7h12.7V594.1z"/>
<path class="st1" d="M1111.7,621.9H1099v12.7h12.7V621.9z"/>
<path class="st1" d="M1137.6,621.9h-12.7v12.7h12.7V621.9z"/>
<path class="st1" d="M1163.4,621.9h-12.7v12.7h12.7V621.9z"/>
<path class="st3" d="M1018.7,450.9l-40.4,40.3h-80.4l40.3-40.3H1018.7z"/>
<path class="st3" d="M1018.7,450.9l40.3,40.3v161.3h-80.6V491.1L1018.7,450.9z"/>
<path class="st1" d="M978.3,491.1h-80.4v161.3h80.4V491.1z"/>
<path class="st3" d="M885.1,590.7h4.3V479.4h-4.3V590.7z"/>
<path class="st3" d="M894.8,504.3l-6.8,9.6l0.5,0.3l6.8-9.6L894.8,504.3z"/>
<path class="st3" d="M895.7,507.4l5.1-1.2c0.9-0.2,1.4-1.1,1.2-2s-1.1-1.4-2-1.2l-5.1,1.2c-0.9,0.2-1.4,1.1-1.2,2
	C893.9,507.1,894.7,507.6,895.7,507.4z"/>
<path class="st3" d="M884.1,488h6.5c0.3,0,0.6-0.3,0.6-0.6s-0.3-0.6-0.6-0.6h-6.5c-0.3,0-0.6,0.3-0.6,0.6S883.8,488,884.1,488z"/>
<path class="st3" d="M884.1,490.3h6.5c0.3,0,0.6-0.3,0.6-0.6s-0.3-0.6-0.6-0.6h-6.5c-0.3,0-0.6,0.3-0.6,0.6
	C883.5,490.1,883.8,490.3,884.1,490.3z"/>
<path class="st2" d="M1021.9,527.5c-28.6,46.3-7,67.5-1.3,71.9l-0.5,30h3.6l-0.5-30C1028.9,594.9,1050.6,573.8,1021.9,527.5
	L1021.9,527.5z"/>
<path class="st5" d="M1351.2,489.3l-48.1-71.4l-48.2,71.4v25.8h96.3L1351.2,489.3L1351.2,489.3z"/>
<path class="st0" d="M1351.2,511.4l-48.1-71.4l-48.2,71.4v25.8h96.3L1351.2,511.4L1351.2,511.4z"/>
<path class="st2" d="M1351.2,515.5l-48.1-71.4l-48.2,71.4v136.1h96.3L1351.2,515.5L1351.2,515.5z"/>
<path class="st6" d="M1307.7,512.4h-9.3V535h9.3V512.4z"/>
<path class="st7" d="M1130.3,634.3c-5.3-3.7-12.7-4-18.2-0.9c0.5-4.9-2.6-9.9-7.2-11.8c-4.6-1.9-10.3-0.4-13.4,3.4
	c-1.8-17.5-12.3-33.4-30.9-31.4c-12.5,1.3-25.8,14.7-26.9,24.1c-6.9-3.6-15.4-3.8-22.5-0.5c-7,3.3-12.3,10.1-13.8,17.7
	c-11.5-4.2-25.9,4-28,16.1l168,0.1C1138.4,644.7,1135.5,637.9,1130.3,634.3L1130.3,634.3z"/>
<path class="st7" d="M682.6,247.2H523.9v345.6h158.8V247.2H682.6z"/>
<path class="st0" d="M573.3,386.2h-12v12h12V386.2z"/>
<path class="st0" d="M597.2,386.2h-12v12h12V386.2z"/>
<path class="st0" d="M621.2,386.2h-12v12h12V386.2z"/>
<path class="st0" d="M645.2,386.2h-12v12h12V386.2z"/>
<path class="st0" d="M573.3,362.3h-12v12h12V362.3z"/>
<path class="st0" d="M597.2,362.3h-12v12h12V362.3z"/>
<path class="st0" d="M621.2,362.3h-12v12h12V362.3z"/>
<path class="st0" d="M645.2,362.3h-12v12h12V362.3z"/>
<path class="st0" d="M573.3,338.3h-12v12h12V338.3z"/>
<path class="st0" d="M597.2,338.3h-12v12h12V338.3z"/>
<path class="st0" d="M621.2,338.3h-12v12h12V338.3z"/>
<path class="st0" d="M645.2,338.3h-12v12h12V338.3z"/>
<path class="st0" d="M573.3,314.4h-12v12h12V314.4z"/>
<path class="st0" d="M597.2,314.4h-12v12h12V314.4z"/>
<path class="st0" d="M621.2,314.4h-12v12h12V314.4z"/>
<path class="st0" d="M645.2,314.4h-12v12h12V314.4z"/>
<path class="st0" d="M573.3,290.5h-12v12h12V290.5z"/>
<path class="st0" d="M597.2,290.5h-12v12h12V290.5z"/>
<path class="st0" d="M621.2,290.5h-12v12h12V290.5z"/>
<path class="st0" d="M645.2,290.5h-12v12h12V290.5z"/>
<path class="st3" d="M688.8,230H517.7v17.2h171.1L688.8,230L688.8,230z"/>
<path class="st3" d="M607.6,586.7c-10.3-8.1-26.7-11.9-36.4-2.7c-7.2-15.3-22.1-23.7-35.6-20.2s-24.7,18.8-26.8,36.5
	c-8.6-8.3-20.4-10.5-30.5-5.7c-10,4.8-17.9,16.5-20.2,30.1l163.7,2.1C623.8,611.4,617.9,594.9,607.6,586.7z"/>
<path class="st2" d="M604,633.4c-5.3-3.7-12.7-4-18.2-0.9c0.5-4.9-2.6-9.9-7.2-11.8c-4.5-1.9-10.3-0.4-13.4,3.4
	c-1.8-17.5-12.3-33.4-30.9-31.4c-12.6,1.3-25.8,14.7-26.9,24.1c-6.9-3.6-15.4-3.8-22.5-0.5c-7,3.3-12.3,10.1-13.8,17.7
	c-11.5-4.2-25.9,4-28,16.1l168,0.1C612.1,643.9,609.2,637,604,633.4z"/>
<path class="st1" d="M59.6,477.3c-57.1,92.2,0,127.4,0,127.4S116.7,569.5,59.6,477.3z"/>
<path class="st2" d="M59.6,498.9c-46.1,74.5,0,102.9,0,102.9S105.7,573.4,59.6,498.9z"/>
<path class="st5" d="M62.7,655.7h-6.2l2.1-127.4h2L62.7,655.7z"/>
<path class="st5" d="M59.6,562.2v3.3l-16.8-11.6v-1.2L59.6,562.2z"/>
<path class="st5" d="M59.5,545.9v3.3l16.8-11.6v-1.2L59.5,545.9z"/>
<path class="st5" d="M59.6,579.7v3.3l16.8-11.6v-1.2L59.6,579.7z"/>
<path class="st1" d="M1387.4,472.7c-57.1,92.2,0,127.4,0,127.4S1444.5,564.9,1387.4,472.7z"/>
<path class="st2" d="M1387.4,494.3c-46.1,74.5,0,102.9,0,102.9S1433.5,568.8,1387.4,494.3z"/>
<path class="st5" d="M1390.6,651.1h-6.2l2.1-127.4h2L1390.6,651.1z"/>
<path class="st5" d="M1387.4,557.6v3.3l-16.8-11.6v-1.2L1387.4,557.6z"/>
<path class="st5" d="M1387.3,541.3v3.3l16.8-11.6v-1.2L1387.3,541.3z"/>
<path class="st5" d="M1387.4,575.1v3.3l16.8-11.6v-1.2L1387.4,575.1z"/>
<path class="st3" d="M176.6,654.9h9.1V420h-9.1V654.9z"/>
<path class="st3" d="M197,472.8L182.7,493l1,0.7l14.3-20.3L197,472.8z"/>
<path class="st3" d="M198.9,479.2l10.8-2.6c1.9-0.5,3-2.4,2.6-4.3c-0.5-1.9-2.4-3-4.3-2.6l-10.8,2.6c-1.9,0.5-3,2.4-2.6,4.3
	C195.1,478.6,197,479.7,198.9,479.2z"/>
<path class="st3" d="M174.4,438.3h13.7c0.7,0,1.2-0.5,1.2-1.2s-0.5-1.2-1.2-1.2h-13.7c-0.7,0-1.2,0.5-1.2,1.2
	S173.7,438.3,174.4,438.3z"/>
<path class="st3" d="M174.4,443.1h13.7c0.7,0,1.2-0.5,1.2-1.2s-0.5-1.2-1.2-1.2h-13.7c-0.7,0-1.2,0.5-1.2,1.2
	S173.7,443.1,174.4,443.1z"/>
<path class="st3" d="M984.3,605.8c-15.3-9.4-39.9-13.8-54.4-3.1c-10.7-17.6-33-27.3-53.2-23.2s-36.9,21.6-40,42
	c-12.8-9.5-30.5-12.1-45.5-6.5s-26.8,19.1-30.3,34.7l244.7,2.4C1008.3,634.2,999.5,615.1,984.3,605.8L984.3,605.8z"/>
<path class="st3" d="M1428.5,674H11.5C5.2,674,0,668.8,0,662.5S5.2,651,11.5,651h1417c6.3,0,11.5,5.2,11.5,11.5
	S1434.8,674,1428.5,674z"/>
<path class="st0" d="M730.7,486.9h-165V651h165.1V486.9H730.7z"/>
<path class="st3" d="M696.2,363.7H749v1.2l81.7,121.8h43.6l-81.7-121.9v-1.1H648.2l0,0H696.2z"/>
<path class="st3" d="M749,364.9v-1.2h-52.8v1.2l81.7,121.9h52.8l0,0L749,364.9z"/>
<path class="st1" d="M600,435.6l11.7-17.4L600,435.6z"/>
<path class="st3" d="M696.2,363.7h-48l82.5,123h47.2l-81.7-121.9V363.7z"/>
<path class="st1" d="M648.2,363.7L648,364L648.2,363.7z"/>
<path class="st0" d="M648,364l-82.3,122.7h165.1l-82.5-123L648,364z"/>
<path class="st7" d="M662,455.8c0,8.6-7,15.6-15.6,15.6s-15.6-7-15.6-15.6s7-15.6,15.6-15.6S662,447.2,662,455.8z"/>
<path class="st7" d="M605.8,522.1h-20.5v20.5h20.5V522.1z"/>
<path class="st7" d="M655.4,522.1h-20.5v20.5h20.5V522.1z"/>
<path class="st7" d="M705,522.1h-20.5v20.5H705V522.1z"/>
<path class="st7" d="M605.8,566.6h-20.5v20.5h20.5V566.6z"/>
<path class="st7" d="M655.4,566.6h-20.5v20.5h20.5V566.6z"/>
<path class="st7" d="M705,566.6h-20.5v20.5H705V566.6z"/>
<path class="st7" d="M605.8,611.1h-20.5v20.5h20.5V611.1z"/>
<path class="st7" d="M655.4,611.1h-20.5v20.5h20.5V611.1z"/>
<path class="st7" d="M705,611.1h-20.5v20.5H705V611.1z"/>
<path class="st1" d="M874.3,486.7H730.7v164.2h143.6L874.3,486.7L874.3,486.7z"/>
<path class="st5" d="M764.4,522.1h-20.5v20.5h20.5V522.1z"/>
<path class="st5" d="M814,522.1h-20.5v20.5H814V522.1z"/>
<path class="st5" d="M863.6,522.1h-20.5v20.5h20.5V522.1z"/>
<path class="st5" d="M764.4,566.6h-20.5v20.5h20.5V566.6z"/>
<path class="st5" d="M814,566.6h-20.5v20.5H814V566.6z"/>
<path class="st5" d="M863.6,566.6h-20.5v20.5h20.5V566.6z"/>
<path class="st5" d="M764.4,611.1h-20.5v20.5h20.5V611.1z"/>
<path class="st5" d="M814,611.1h-20.5v20.5H814V611.1z"/>
<path class="st5" d="M863.6,611.1h-20.5v20.5h20.5V611.1z"/>
<path class="st7" d="M353.9,395.6v127.6v127.6H439V523.2L353.9,395.6z"/>
<path class="st0" d="M401.9,566.5h-18.7v84.2h18.7V566.5z"/>
<path class="st3" d="M353.9,395.6H439l85,127.6h-85L353.9,395.6z"/>
<path class="st3" d="M524,523.2h-85v127.6h85V523.2z"/>
<path class="st0" d="M1303.2,650.8h-204.6V498.5l204.6,51.1V650.8z"/>
<path class="st5" d="M1141,567.4h-13.3v13.3h13.3V567.4z"/>
<path class="st5" d="M1174.2,567.4h-13.3v13.3h13.3V567.4z"/>
<path class="st5" d="M1207.5,567.4h-13.3v13.3h13.3V567.4z"/>
<path class="st5" d="M1240.8,567.4h-13.3v13.3h13.3V567.4z"/>
<path class="st5" d="M1274,567.4h-13.3v13.3h13.3V567.4z"/>
<path class="st5" d="M1141,595.8h-13.3v13.3h13.3V595.8z"/>
<path class="st5" d="M1174.2,595.8h-13.3v13.3h13.3V595.8z"/>
<path class="st5" d="M1207.5,595.8h-13.3v13.3h13.3V595.8z"/>
<path class="st5" d="M1240.8,595.8h-13.3v13.3h13.3V595.8z"/>
<path class="st5" d="M1274,595.8h-13.3v13.3h13.3V595.8z"/>
<path class="st5" d="M1141,624.3h-13.3v13.3h13.3V624.3z"/>
<path class="st5" d="M1174.2,624.3h-13.3v13.3h13.3V624.3z"/>
<path class="st5" d="M1207.5,624.3h-13.3v13.3h13.3V624.3z"/>
<path class="st5" d="M1240.8,624.3h-13.3v13.3h13.3V624.3z"/>
<path class="st5" d="M1274,624.3h-13.3v13.3h13.3V624.3z"/>
<path class="st5" d="M1095.9,496.2l-0.8,3.1l211,52.8l0.8-3.1L1095.9,496.2z"/>
<path class="st1" d="M341.1,474.8c-57.1,92.2,0,127.4,0,127.4S398.2,567,341.1,474.8z"/>
<path class="st2" d="M341.1,496.4c-46.1,74.5,0,102.9,0,102.9S387.2,570.9,341.1,496.4z"/>
<path class="st5" d="M344.2,653.2H338l2.1-127.4h2L344.2,653.2z"/>
<path class="st5" d="M341.1,559.7v3.3l-16.8-11.6v-1.2L341.1,559.7z"/>
<path class="st5" d="M341,543.4v3.3l16.8-11.6v-1.2L341,543.4z"/>
<path class="st5" d="M341.1,577.2v3.3l16.8-11.6v-1.2L341.1,577.2z"/>
</svg>
