<?xml version="1.0" encoding="UTF-8"?>
<svg id="Livello_2" data-name="Livello 2" xmlns="http://www.w3.org/2000/svg" viewBox="0 0 195.88 41.96">
  <defs>
    <style>
      .cls-1 {
        fill: #242431;
      }

      .cls-2 {
        fill: #8ec6ef;
      }
    </style>
  </defs>
  <g id="Livello_1-2" data-name="Livello 1">
    <g>
      <g>
        <polygon class="cls-2" points="13.39 0 0 4.72 0 34.22 13.39 34.22 13.39 0"/>
        <polygon class="cls-2" points="21.71 17.45 13.34 12.73 13.34 34.22 21.71 34.22 21.71 17.45"/>
      </g>
      <rect class="cls-1" x="14.05" y="19.58" width="1.98" height="1.98"/>
      <rect class="cls-1" x="14.05" y="23.02" width="1.98" height="1.98"/>
      <rect class="cls-1" x="14.05" y="26.47" width="1.98" height="1.98"/>
      <rect class="cls-1" x="14.05" y="29.91" width="1.98" height="1.98"/>
      <rect class="cls-1" x="17.71" y="19.58" width="1.98" height="1.98"/>
      <rect class="cls-1" x="17.71" y="23.02" width="1.98" height="1.98"/>
      <rect class="cls-1" x="17.71" y="26.47" width="1.98" height="1.98"/>
      <rect class="cls-1" x="17.71" y="29.91" width="1.98" height="1.98"/>
      <rect class="cls-1" x="1.97" y="7.15" width="9.27" height="1.39"/>
      <rect class="cls-1" x="1.97" y="10.44" width="9.27" height="1.39"/>
      <rect class="cls-1" x="1.97" y="13.72" width="9.27" height="1.39"/>
      <rect class="cls-1" x="1.97" y="17" width="9.27" height="1.39"/>
      <rect class="cls-1" x="1.97" y="20.29" width="9.27" height="1.39"/>
      <rect class="cls-1" x="1.97" y="23.57" width="9.27" height="1.39"/>
      <rect class="cls-1" x="1.97" y="26.86" width="9.27" height="1.39"/>
      <rect class="cls-1" x="1.97" y="30.14" width="9.27" height="1.39"/>
    </g>
    <g>
      <path class="cls-1" d="m38.38,12.52l2.21,2.21c2.75-1.92,5.7-2.88,8.86-2.88,2.07,0,3.69.45,4.87,1.35,1.18.9,1.77,2.15,1.77,3.74v17.71h-8.86v-15.5h-1.37c-1,0-1.76.11-2.28.33-.52.22-.77.67-.77,1.35v13.82h-8.86V12.52h4.43Z"/>
      <path class="cls-1" d="m68.93,27.13v1.55c.89.09,1.77.13,2.66.13,2.75,0,5.52-.44,8.32-1.33l1.06,6.51c-3.31.89-6.58,1.33-9.83,1.33-4.13,0-7.12-.97-8.97-2.9-1.85-1.93-2.77-4.88-2.77-8.83s.92-6.9,2.77-8.83c1.84-1.93,4.83-2.9,8.94-2.9s6.96.56,8.52,1.68c1.56,1.12,2.35,3.22,2.35,6.29,0,2.6-.94,4.47-2.81,5.6-1.88,1.14-5.29,1.7-10.25,1.7Zm0-6.95v1.82h1.82c1.06,0,1.84-.11,2.32-.33.49-.22.73-.73.73-1.53v-1.82h-1.82c-1.06,0-1.84.11-2.33.33-.49.22-.73.73-.73,1.53Z"/>
      <path class="cls-1" d="m92.53,12.52l2.48,5.49h.27l2.3-5.49h9.21l-5.54,11.34,5.76,10.8h-9.21l-2.75-5.98h-.22l-2.52,5.98h-9.21l5.76-11.42-5.54-10.72h9.21Z"/>
      <path class="cls-1" d="m107.89,18.23v-5.71h2.21v-3.54l8.86-2.21v5.76h3.06v5.71h-3.06v10.1c.77.15,1.64.25,2.61.31l-.4,6.51c-4.04,0-6.67-.22-7.88-.66-1.51-.53-2.45-1.24-2.83-2.13-.24-.53-.35-1.15-.35-1.86v-12.27h-2.21Z"/>
      <path class="cls-1" d="m141.59,28.01l.53,6.38c-1.54.62-3.51.93-5.93.93-4.13,0-7.12-.97-8.97-2.9-1.85-1.93-2.77-4.88-2.77-8.83s.92-6.9,2.77-8.83c1.84-1.93,4.83-2.9,8.97-2.9,2.57,0,4.55.31,5.93.93l-1.06,6.02c-1.56-.32-2.8-.49-3.72-.49-2.24,0-3.37.78-3.37,2.35v7.93c.86.18,1.96.27,3.3.27s2.78-.28,4.32-.84Z"/>
      <path class="cls-1" d="m146.17,11.1c-.66-.5-1-1.42-1-2.75s.33-2.26,1-2.79c.66-.53,1.98-.8,3.94-.8s3.28.27,3.94.8c.66.53,1,1.46,1,2.79s-.33,2.24-1,2.75c-.66.5-1.98.75-3.94.75s-3.28-.25-3.94-.75Zm-.51,23.56V13.62l8.86-1.11v22.14h-8.86Z"/>
      <path class="cls-1" d="m157.62,18.23v-5.71h2.21v-3.54l8.86-2.21v5.76h3.06v5.71h-3.06v10.1c.77.15,1.64.25,2.61.31l-.4,6.51c-4.04,0-6.67-.22-7.88-.66-1.51-.53-2.45-1.24-2.83-2.13-.24-.53-.35-1.15-.35-1.86v-12.27h-2.21Z"/>
      <path class="cls-1" d="m177.81,32.35l-4.96-19.84h8.86l2.44,14.39h.44l2.44-14.39h8.86l-5.54,22.14c-.83,2.89-1.86,4.83-3.1,5.82-1.24.99-3.03,1.48-5.36,1.48h-8.59v-5.76l4.16-.8c2.13-.47,3.51-1,4.16-1.59.35-.32.65-.72.89-1.2l-.04-.27h-4.65Z"/>
    </g>
  </g>
</svg>