<?xml version="1.0" encoding="UTF-8"?>
<svg id="Livello_1" data-name="Livello 1" xmlns="http://www.w3.org/2000/svg" viewBox="0 0 1280 499">
  <defs>
    <style>
      .cls-1 {
        fill: #fff;
      }
    </style>
  </defs>
  <path class="cls-1" d="m127.35,98h195.21c2.49-4.87,3.76-10.01.85-14.26-2.55-3.66-7.1-5.82-11.54-5.46-2.91.26-5.69,1.5-8.57,1.96-9.94,1.63-17.1-5.43-18.41-14.49-1.31-9.16-10.69-15.99-19.95-13.08-4.55,1.44-8.37,4.48-12.85,6.12-13.01,4.77-13.15-7.46-17.62-15.76-6.74-12.46-22.1-19.59-36-16.68-13.86,2.91-25.08,15.6-26.26,29.72-.62,7.39,1.24,14.88-.03,22.2-1.28,7.29-7.62,14.75-14.88,13.18-7.29-1.57-10.23-10.69-16.77-14.23-5.49-2.98-13.18-.88-16.38,4.48-3.14,5.2-1.57,12.62,3.24,16.25l-.03.03Z"/>
  <path class="cls-1" d="m37.49,429.56h195.21c2.49-4.87,3.76-10.01.85-14.26-2.55-3.66-7.1-5.82-11.54-5.46-2.91.26-5.69,1.5-8.57,1.96-9.94,1.6-17.1-5.43-18.41-14.49-1.31-9.16-10.69-15.99-19.95-13.08-4.55,1.44-8.37,4.48-12.85,6.11-13.01,4.77-13.15-7.46-17.62-15.76-6.74-12.46-22.1-19.59-36-16.68-13.86,2.91-25.08,15.6-26.26,29.72-.62,7.39,1.24,14.88-.03,22.2-1.28,7.29-7.62,14.75-14.88,13.18-7.29-1.57-10.23-10.69-16.77-14.22-5.49-2.98-13.18-.88-16.38,4.48-3.14,5.2-1.57,12.62,3.24,16.25l-.03.03Z"/>
  <path class="cls-1" d="m1233.79,357c.49-7.75-6.9-15.4-14.75-14.62-3.4.33-6.6,1.93-10.04,1.83-3.4-.13-7-2.71-6.15-6.02,1.12-4.51-.81-9.65-4.64-12.26-3.82-2.65-9.32-2.62-13.11.07-2.45,1.73-4.15,4.35-6.28,6.48-2.12,2.16-5.1,3.92-8.01,3.2-2.94-.72-5.4-5.26-3.04-7.1,3.2-9.39-2.58-20.86-12.07-23.87-9.48-3.01-20.79,3.04-23.61,12.59-1.21,4.15-.98,8.6-2.12,12.75-1.18,4.15-4.51,8.31-8.83,8.08-3.6-.2-6.34-3.3-8.11-6.48-1.73-3.17-3.04-6.74-5.75-9.12-3.37-2.94-8.67-3.43-12.5-1.08-3.82,2.32-5.82,7.26-4.74,11.61,1.15,4.61-2.42,9.71-7.03,10.76-4.61,1.05-9.64.13-14.03,1.93-4.41,1.8-7.25,6.54-7.32,11.25h172.13Z"/>
</svg>